<?xml version="1.0" encoding="UTF-8"?>
<!-- Generator: Adobe Illustrator 16.0.0, SVG Export Plug-In . SVG Version: 6.00 Build 0)  -->
<!DOCTYPE svg PUBLIC "-//W3C//DTD SVG 1.1//EN" "http://www.w3.org/Graphics/SVG/1.1/DTD/svg11.dtd">
<svg version="1.1" id="Layer_1" xmlns="http://www.w3.org/2000/svg" xmlns:xlink="http://www.w3.org/1999/xlink" x="0px" y="0px" width="480px" height="480px" viewBox="0 0 480 480" enable-background="new 0 0 480 480" xml:space="preserve">
<circle fill="#FFFFFF" stroke="#010101" stroke-width="14" stroke-miterlimit="10" cx="240" cy="240" r="225.47"/>
<g transform="translate(0,-1004.3622)">
	<path fill="#010101" d="M169.553,1338.706c-1.482,0.044-2.892,0.663-3.926,1.728l-34.141,34.128c-2.272,2.187-2.345,5.8-0.16,8.074   c2.186,2.272,5.801,2.344,8.074,0.16c0.053-0.054,0.106-0.106,0.159-0.16l34.141-34.129c2.261-2.198,2.312-5.812,0.114-8.073   C172.698,1339.286,171.152,1338.66,169.553,1338.706L169.553,1338.706z"/>
	<path fill="#010101" d="M266.679,1275.9c-3.152,0.05-5.669,2.645-5.619,5.797l0,0v64.322l-39.961,13.313v-60.532   c0.044-3.153-2.476-5.745-5.628-5.789c-3.153-0.044-5.745,2.477-5.789,5.628c-0.001,0.054-0.001,0.108,0,0.161v68.437   c-0.003,3.152,2.554,5.711,5.706,5.711c0.615,0,1.227-0.099,1.808-0.294l51.379-17.103c2.333-0.776,3.905-2.96,3.903-5.419v-68.437   c0.049-3.152-2.468-5.747-5.62-5.797C266.799,1275.898,266.739,1275.898,266.679,1275.9L266.679,1275.9z"/>
	<path fill="#010101" d="M129.747,1207.397c-2.461,0-4.646,1.578-5.418,3.913l-17.116,51.377c-0.991,2.993,0.632,6.225,3.626,7.215   c0.578,0.191,1.185,0.289,1.794,0.289h68.437c3.153,0.047,5.749-2.47,5.795-5.623c0.048-3.151-2.468-5.746-5.622-5.794   c-0.058-0.001-0.115-0.001-0.173,0h-60.521l13.312-39.959h64.325c3.152,0.04,5.741-2.482,5.782-5.636   c0.041-3.152-2.482-5.741-5.637-5.782c-0.048,0-0.098,0-0.146,0H129.747L129.747,1207.397z"/>
	<path fill="#010101" d="M135.301,1304.454c-1.483,0.045-2.892,0.664-3.926,1.729l-34.142,34.127   c-2.272,2.187-2.344,5.8-0.159,8.073c2.186,2.273,5.799,2.344,8.073,0.16c0.054-0.053,0.107-0.106,0.159-0.16l34.141-34.129   c2.261-2.198,2.313-5.812,0.113-8.073C138.445,1305.033,136.9,1304.406,135.301,1304.454L135.301,1304.454z"/>
	<path fill="#010101" d="M363.762,1110.351c0,0-82.842,0.331-135.428,52.916c-52.584,52.583-52.906,135.411-52.906,135.411   c-0.03,3.153,2.501,5.734,5.654,5.764c0.037,0.001,0.074,0.001,0.11,0c0,0,82.842-0.318,135.428-52.903   c52.584-52.584,52.906-135.423,52.906-135.423c0.03-3.153-2.5-5.733-5.654-5.765C363.835,1110.35,363.799,1110.35,363.762,1110.351   z M357.662,1122.226c-0.83,15.176-6.533,78.659-49.115,121.239c-42.591,42.591-106.1,48.286-121.255,49.114   c0.828-15.155,6.523-78.65,49.116-121.241C278.999,1128.75,342.505,1123.054,357.662,1122.226z"/>
	<path fill="#010101" d="M301.02,1150.312c-15.695,0-28.542,12.846-28.542,28.542s12.847,28.543,28.542,28.543   c15.698,0,28.545-12.847,28.545-28.543C329.564,1163.157,316.718,1150.312,301.02,1150.312z M301.02,1161.728   c9.527,0,17.128,7.6,17.128,17.126s-7.601,17.125-17.128,17.125c-9.525,0-17.126-7.599-17.126-17.125   S291.494,1161.728,301.02,1161.728z"/>
</g>
</svg>