<?xml version="1.0" encoding="utf-8"?>
<!-- Generator: Adobe Illustrator 18.0.0, SVG Export Plug-In . SVG Version: 6.00 Build 0)  -->
<!DOCTYPE svg PUBLIC "-//W3C//DTD SVG 1.1 Tiny//EN" "http://www.w3.org/Graphics/SVG/1.1/DTD/svg11-tiny.dtd">
<svg version="1.1" baseProfile="tiny" id="Layer_1" xmlns="http://www.w3.org/2000/svg" xmlns:xlink="http://www.w3.org/1999/xlink"
	 x="0px" y="0px" viewBox="0 0 500 500" xml:space="preserve">
<g>
	<g>
		<rect x="152.7" y="223.1" fill="#FFFFFF" width="194.7" height="18.8"/>
		<path fill="#FFFFFF" d="M199.3,165c-8.4,0-15.2,6.8-15.2,15.2c0,8.4,6.8,15.2,15.2,15.2c8.4,0,15.2-6.8,15.2-15.2
			C214.4,171.8,207.6,165,199.3,165z"/>
	</g>
	<g>
		<path d="M207.9,227.9c0.3,0.4,0.5,0.8,0.6,1.3c0.1,0.5,0.2,1.1,0.1,1.8c0,0.3-0.1,0.5-0.1,0.8c-0.1,0.2-0.1,0.4-0.2,0.6
			c0,0,0,0.1-0.1,0.1c0,0,0,0.1-0.1,0.1c-0.1,0.1-0.1,0.2-0.1,0.3c0,0.1-0.1,0.2-0.2,0.2c-0.3,0.4-0.6,0.6-0.9,0.9s-0.8,0.4-1.2,0.6
			c-0.1,0.1-0.3,0.1-0.4,0.1c-0.1,0-0.3,0-0.4,0.1c-0.1,0-0.1,0-0.2,0c-0.1,0-0.1,0-0.2,0h-0.8h-1.6c-0.2,0-0.3,0-0.5,0
			c-0.2,0-0.3,0-0.4,0.1c-0.1,0.1-0.2,0.2-0.2,0.5s0,0.4,0,0.6v2.5c0,0.1,0,0.3,0,0.5c0,0.2,0,0.3-0.1,0.4c0,0.1-0.2,0.2-0.3,0.2
			c-0.1,0-0.2,0-0.3,0c-0.1,0-0.2,0-0.3,0h-1.1c-0.1,0-0.3,0-0.4,0c-0.1,0-0.2,0-0.3-0.1c-0.1-0.1-0.1-0.2-0.1-0.3
			c0-0.1,0-0.3,0-0.4v-11.2c0-0.2,0-0.4,0-0.6c0-0.2,0-0.4,0.1-0.5c0.1-0.1,0.1-0.1,0.3-0.2c0,0,0.1,0,0.1,0c0,0,0.1,0,0.1,0h5.4
			c0.1,0,0.2,0,0.3,0c0.1,0,0.2,0,0.3,0h0.1c0.1,0,0.1,0,0.2,0c0.1,0,0.1,0,0.2,0c0.1,0,0.1,0,0.2,0c0.1,0,0.1,0,0.2,0
			c0.2,0.1,0.4,0.1,0.6,0.2c0.2,0.1,0.4,0.1,0.6,0.2c0.1,0.1,0.1,0.1,0.2,0.1c0.1,0,0.1,0.1,0.2,0.1c0.1,0,0.1,0.1,0.2,0.1
			c0,0,0.1,0.1,0.2,0.1l0.1,0.1C207.7,227.6,207.8,227.7,207.9,227.9z M205.9,231c0-0.1,0-0.3,0-0.5c0-0.2,0-0.4-0.1-0.5
			c-0.1-0.3-0.2-0.5-0.3-0.7c-0.1-0.2-0.3-0.3-0.5-0.4c-0.2-0.1-0.4-0.2-0.7-0.3c-0.3-0.1-0.6-0.1-0.9-0.1c-0.3,0-0.6,0-1,0
			c-0.3,0-0.7,0-1,0c0,0-0.1,0-0.1,0c0,0-0.1,0-0.1,0c-0.1,0.1-0.2,0.1-0.2,0.2c-0.1,0.1-0.1,0.2-0.1,0.4c0,0.2,0,0.3,0,0.5v1.8
			c0,0.1,0,0.3,0,0.5c0,0.2,0,0.3,0.1,0.4c0,0.1,0.1,0.1,0.2,0.2c0.1,0,0.2,0.1,0.3,0.1c0.1,0,0.3,0,0.4,0c0.1,0,0.3,0,0.4,0
			c0.7,0,1.3,0,1.8-0.1c0.6-0.1,1-0.3,1.3-0.7c0.1-0.1,0.1-0.2,0.2-0.4C205.8,231.3,205.8,231.1,205.9,231z"/>
		<path d="M209.8,226.2h1.6c0.2,0,0.3,0,0.5,0s0.3,0,0.4,0.1c0.1,0.1,0.3,0.2,0.3,0.4c0.1,0.2,0.2,0.3,0.3,0.4
			c0.2,0.3,0.4,0.7,0.6,1c0.2,0.3,0.4,0.7,0.6,1c0.2,0.3,0.3,0.5,0.4,0.8c0.1,0.3,0.3,0.5,0.5,0.8c0.1,0.1,0.1,0.2,0.2,0.3
			c0.1,0.1,0.2,0.2,0.3,0.2c0.1,0,0.2,0,0.2-0.1c0.1-0.1,0.1-0.1,0.2-0.2c0.1-0.2,0.2-0.4,0.3-0.5s0.2-0.4,0.3-0.5
			c0.3-0.4,0.5-0.9,0.8-1.3c0.2-0.4,0.5-0.9,0.8-1.3c0.1-0.2,0.2-0.3,0.3-0.6c0.1-0.2,0.3-0.4,0.4-0.4c0.1-0.1,0.3-0.1,0.5-0.1
			c0.2,0,0.5,0,0.6,0h1.1c0.1,0,0.2,0,0.3,0c0.1,0,0.2,0,0.3,0.1c0.1,0.1,0.1,0.2,0.1,0.3c-0.1,0.1-0.1,0.2-0.1,0.3
			c-0.1,0.3-0.3,0.5-0.4,0.7c-0.1,0.2-0.3,0.5-0.4,0.7c-0.4,0.7-0.8,1.3-1.2,2c-0.4,0.7-0.8,1.4-1.2,2c-0.1,0.2-0.3,0.4-0.4,0.6
			c-0.1,0.2-0.2,0.4-0.4,0.6c-0.1,0.1-0.2,0.3-0.3,0.4c-0.1,0.1-0.1,0.3-0.2,0.5c0,0.1,0,0.1,0,0.2c0,0.1,0,0.1,0,0.2
			c0,0,0,0.1,0,0.1c0,0.1,0,0.1,0,0.1v0.6v2.4c0,0.2,0,0.5,0,0.8c0,0.3-0.1,0.5-0.2,0.5c-0.1,0-0.2,0.1-0.3,0.1c-0.1,0-0.2,0-0.3,0
			h-1.3c-0.1,0-0.3,0-0.4,0c-0.1,0-0.2-0.1-0.3-0.1c-0.1-0.1-0.1-0.2-0.1-0.3c0-0.1,0-0.2,0-0.4v-0.7v-2.4v-0.7c0-0.1,0-0.2,0-0.2
			s0-0.2,0-0.2c-0.1-0.2-0.1-0.4-0.2-0.5s-0.2-0.3-0.3-0.4c-0.1-0.2-0.2-0.4-0.3-0.6c-0.1-0.2-0.2-0.4-0.4-0.6
			c-0.1-0.1-0.2-0.3-0.3-0.4c-0.1-0.2-0.2-0.3-0.3-0.4c-0.3-0.5-0.6-1-0.9-1.5c-0.3-0.5-0.6-1-0.9-1.5c-0.1-0.2-0.3-0.5-0.4-0.7
			c-0.1-0.2-0.3-0.5-0.4-0.7c0-0.1-0.1-0.1-0.2-0.3c-0.1-0.1-0.1-0.2,0-0.3c0,0,0.1-0.1,0.1-0.1c0,0,0.1,0,0.1,0
			C209.7,226.2,209.7,226.2,209.8,226.2C209.8,226.2,209.8,226.2,209.8,226.2z"/>
		<path d="M229.4,225.9c2.4,0,4.1,0.7,5,2.2c0.1,0.2,0.2,0.4,0.3,0.6c0.1,0.2,0.1,0.4,0.2,0.7c0,0.1,0,0.2,0,0.3
			c0,0.1,0,0.2-0.1,0.3c-0.1,0.1-0.2,0.1-0.3,0.1c-0.1,0-0.2,0-0.4,0H233c-0.1,0-0.2,0-0.3,0c-0.1,0-0.2,0-0.3,0
			c-0.2-0.1-0.2-0.2-0.3-0.3c0-0.1-0.1-0.3-0.2-0.4c0-0.1-0.1-0.3-0.2-0.4s-0.2-0.2-0.3-0.3c-0.2-0.1-0.3-0.2-0.5-0.3
			c-0.1-0.1-0.3-0.1-0.6-0.2c-0.2,0-0.4-0.1-0.7-0.1s-0.5,0-0.7,0c-0.2,0-0.4,0.1-0.6,0.1c-0.3,0.1-0.5,0.3-0.7,0.4
			c-0.2,0.2-0.3,0.4-0.3,0.8c0,0.1,0,0.2,0,0.3c0,0.1,0,0.2,0.1,0.3c0.1,0.3,0.2,0.4,0.4,0.6s0.4,0.2,0.6,0.3
			c0.1,0.1,0.3,0.1,0.4,0.1c0.1,0,0.3,0.1,0.4,0.1c0.3,0.1,0.7,0.2,1,0.3c0.4,0.1,0.7,0.2,1.1,0.3c0.1,0,0.1,0,0.2,0
			c0.1,0,0.1,0,0.2,0c0.2,0.1,0.5,0.2,0.8,0.2c0.3,0.1,0.5,0.2,0.7,0.3c0.3,0.2,0.6,0.4,0.9,0.6c0.2,0.2,0.5,0.5,0.7,0.8
			c0.1,0.1,0.1,0.2,0.2,0.3c0,0.1,0.1,0.3,0.1,0.4c0,0,0,0.1,0,0.1c0,0,0,0.1,0,0.1c0,0.2,0.1,0.4,0.1,0.7c0,0.1,0,0.1,0,0.2v0.3
			c0,0.1,0,0.3-0.1,0.4s0,0.2-0.1,0.4c-0.1,0.2-0.2,0.4-0.2,0.6c-0.1,0.2-0.2,0.4-0.3,0.5c-0.1,0.1-0.1,0.1-0.1,0.2
			c-0.1,0-0.1,0.1-0.1,0.2c-0.1,0.1-0.1,0.1-0.2,0.2s-0.2,0.1-0.2,0.2c-0.1,0.1-0.1,0.1-0.2,0.1c-0.1,0.1-0.1,0.1-0.2,0.1
			c-0.2,0.1-0.4,0.3-0.7,0.3c-0.2,0.1-0.5,0.2-0.7,0.3c-0.2,0.1-0.4,0.1-0.5,0.1c-0.2,0-0.4,0-0.6,0.1c-0.1,0-0.2,0-0.3,0
			c-0.1,0-0.2,0-0.2,0h-0.2c0,0-0.1,0-0.1,0c0,0-0.1,0-0.1,0c-0.1,0-0.2,0-0.3,0c-0.2,0-0.3,0-0.3,0h-0.2c-0.1,0-0.2,0-0.3,0
			c-0.1,0-0.2,0-0.3,0c-0.1,0-0.1,0-0.2,0c-0.1,0-0.1,0-0.2,0c-0.2,0-0.3-0.1-0.5-0.1c-0.2,0-0.3-0.1-0.5-0.1
			c-0.6-0.2-1.1-0.5-1.6-0.8c-0.5-0.3-0.8-0.7-1.2-1.2c-0.2-0.3-0.4-0.7-0.5-1.1c0-0.1,0-0.1,0-0.2c0-0.1,0-0.2,0-0.2
			c0-0.1,0-0.2-0.1-0.4c0-0.1,0-0.3,0.1-0.3c0.1-0.1,0.2-0.2,0.3-0.2c0.1,0,0.3,0,0.4,0h1.2c0.1,0,0.2,0,0.3,0c0.1,0,0.2,0,0.3,0.1
			c0.1,0.1,0.2,0.2,0.2,0.3c0,0.1,0.1,0.3,0.1,0.4c0,0.1,0.1,0.3,0.2,0.4c0.1,0.1,0.2,0.2,0.2,0.4c0.1,0.1,0.1,0.1,0.2,0.2
			c0.1,0.1,0.2,0.1,0.2,0.2c0.3,0.2,0.6,0.3,1,0.4c0.1,0,0.2,0,0.3,0c0.1,0,0.2,0,0.3,0h0.1c0.1,0,0.2,0,0.4,0c0.2,0,0.3,0,0.4,0
			c0,0,0.1,0,0.2,0c0.1,0,0.1,0,0.2,0c0.1,0,0.1,0,0.2,0c0.4-0.1,0.8-0.3,1-0.4c0.2-0.2,0.4-0.5,0.5-0.9c0-0.1,0-0.2,0-0.3
			c0-0.1,0-0.2-0.1-0.3c-0.1-0.3-0.3-0.6-0.6-0.8c0,0-0.1-0.1-0.2-0.1c-0.2-0.1-0.4-0.2-0.6-0.3s-0.5-0.1-0.7-0.2
			c-0.1,0-0.2,0-0.3-0.1c-0.1,0-0.2,0-0.3-0.1c-0.2-0.1-0.4-0.1-0.6-0.2c-0.2,0-0.4-0.1-0.6-0.2c-0.1,0-0.1,0-0.1,0c0,0-0.1,0-0.1,0
			c-0.1,0-0.2,0-0.3-0.1c-0.1,0-0.2-0.1-0.3-0.1c-0.3-0.1-0.6-0.2-0.8-0.3c-0.3-0.1-0.5-0.2-0.7-0.4c-0.3-0.2-0.6-0.4-0.8-0.7
			c-0.2-0.3-0.4-0.5-0.6-0.9c-0.1-0.1-0.1-0.2-0.1-0.3c0-0.1-0.1-0.2-0.1-0.4c0-0.1,0-0.3-0.1-0.5c0-0.2,0-0.4,0-0.5
			c0,0,0-0.1,0-0.2c0-0.1,0.1-0.3,0.1-0.4c0-0.1,0.1-0.3,0.1-0.4c0.2-0.4,0.4-0.8,0.7-1.1c0.3-0.3,0.6-0.6,1-0.8
			c0.2-0.1,0.5-0.3,0.8-0.4c0.3-0.1,0.6-0.2,0.9-0.2c0.1,0,0.2,0,0.4,0c0.1,0,0.2,0,0.4,0c0,0,0.1,0,0.2,0
			C229.3,226,229.4,226,229.4,225.9z"/>
		<path d="M242.9,225.9c1.3,0,2.4,0.2,3.2,0.7c0.9,0.5,1.5,1.1,2,1.9c0.1,0.2,0.2,0.4,0.3,0.6c0.1,0.2,0.2,0.5,0.2,0.7
			c0,0.1,0.1,0.2,0.1,0.3c0,0.1,0,0.2,0,0.3c0,0.1-0.1,0.1-0.1,0.1c-0.1,0-0.1,0-0.2,0.1h-0.2c-0.1,0-0.2,0-0.3,0
			c-0.1,0-0.2,0-0.3,0c-0.1,0-0.2,0-0.4,0c-0.2,0-0.3,0-0.5,0c-0.1,0-0.3,0-0.4,0c-0.1,0-0.2,0-0.3-0.1c-0.1-0.1-0.2-0.2-0.2-0.4
			c-0.1-0.1-0.1-0.3-0.2-0.4c-0.2-0.4-0.6-0.7-0.9-1c-0.3-0.2-0.6-0.3-0.9-0.4c-0.2-0.1-0.5-0.1-0.8-0.1c-0.3,0-0.6,0-0.8,0.1
			c-0.1,0-0.2,0-0.3,0.1c-0.1,0-0.2,0-0.3,0.1c-0.8,0.4-1.4,1-1.8,1.8c-0.1,0.2-0.1,0.3-0.2,0.5c-0.1,0.2-0.1,0.3-0.2,0.5
			c0,0.1,0,0.2,0,0.2c0,0.1,0,0.2,0,0.2c0,0.1,0,0.2,0,0.2s0,0.2,0,0.3c0,0.1,0,0.2,0,0.3c0,0.1,0,0.2,0,0.3c0,0.1,0,0.1,0,0.1
			c0,0.1,0,0.1,0,0.1v0.2c0,0.1,0,0.1,0,0.2c0,0.1,0,0.1,0,0.2c0,0.1,0,0.2,0,0.3c0,0.1,0,0.3,0.1,0.4c0,0.1,0.1,0.2,0.1,0.3
			c0.2,0.5,0.4,1,0.7,1.3c0.3,0.4,0.6,0.7,1.1,0.9c0.1,0.1,0.3,0.1,0.4,0.2c0.1,0,0.3,0.1,0.5,0.1c0.1,0,0.1,0,0.2,0
			c0.1,0,0.1,0,0.2,0h0.2c0.1,0,0.1,0,0.2,0c0.1,0,0.2,0,0.2,0c0.1,0,0.1,0,0.2,0c0.1,0,0.3,0,0.4-0.1c0.1,0,0.3-0.1,0.4-0.1
			c0.3-0.1,0.5-0.3,0.7-0.5c0.2-0.2,0.4-0.4,0.6-0.7c0.1-0.1,0.1-0.3,0.2-0.4s0.1-0.3,0.2-0.4c0-0.1,0.1-0.3,0.1-0.4
			c0-0.1,0.1-0.2,0.2-0.3c0.1,0,0.2,0,0.3,0c0.1,0,0.2,0,0.3,0h1.1c0.1,0,0.2,0,0.3,0c0.1,0,0.2,0,0.3,0.1c0.1,0.1,0.1,0.2,0.1,0.3
			c0,0.1,0,0.3,0,0.4l-0.1,0.5c-0.1,0.2-0.1,0.4-0.2,0.5c-0.1,0.2-0.1,0.3-0.2,0.5c-0.1,0.1-0.1,0.2-0.2,0.3c0,0.1-0.1,0.2-0.1,0.3
			c-0.7,1.1-1.7,1.8-3,2.3c-0.1,0.1-0.3,0.1-0.4,0.1c-0.1,0-0.3,0.1-0.4,0.1c-0.1,0-0.1,0-0.2,0c-0.1,0-0.1,0-0.2,0
			c-0.1,0-0.2,0-0.3,0c-0.1,0-0.2,0-0.3,0h-0.3c-0.1,0-0.2,0-0.3,0c-0.1,0-0.2,0-0.3,0c0,0-0.1,0-0.2,0c-0.1,0-0.2,0-0.3,0
			s-0.2,0-0.3,0c-0.1,0-0.2-0.1-0.4-0.1c-0.1,0-0.2-0.1-0.4-0.1c-0.1,0-0.2-0.1-0.3-0.1c-0.1,0-0.2-0.1-0.3-0.1
			c-0.8-0.3-1.4-0.8-1.9-1.3c-0.5-0.5-0.9-1.2-1.3-1.9c-0.1-0.2-0.1-0.4-0.2-0.6c-0.1-0.2-0.1-0.4-0.2-0.6c0-0.1,0-0.1,0-0.2
			c0,0,0-0.1,0-0.1c0-0.1,0-0.2-0.1-0.4c0-0.1,0-0.2-0.1-0.4c0-0.1,0-0.1,0-0.2c0,0,0-0.1,0-0.1v-0.4c0-0.1,0-0.2,0-0.3
			c0-0.1,0-0.2,0-0.3c0,0,0-0.1,0-0.1c0,0,0-0.1,0-0.1v-0.2c0-0.1,0-0.2,0-0.3c0-0.1,0-0.2,0-0.3c0-0.1,0-0.2,0.1-0.3
			c0-0.1,0-0.2,0.1-0.3c0.1-0.2,0.1-0.3,0.1-0.5c0-0.2,0.1-0.3,0.2-0.5c0.1-0.2,0.1-0.3,0.2-0.5c0.1-0.2,0.1-0.3,0.2-0.5
			c0.2-0.3,0.4-0.7,0.6-0.9c0.1-0.1,0.1-0.2,0.2-0.2c0.1-0.1,0.1-0.1,0.2-0.2c0.3-0.3,0.6-0.6,1-0.8c0.3-0.2,0.7-0.4,1.2-0.6
			c0.2-0.1,0.3-0.1,0.5-0.2c0.2,0,0.3-0.1,0.5-0.1c0.1,0,0.1,0,0.2,0s0.1,0,0.2,0c0.1,0,0.2,0,0.3,0c0.1,0,0.2,0,0.3,0
			C242.7,225.9,242.8,225.9,242.9,225.9C242.8,225.9,242.9,225.9,242.9,225.9z"/>
		<path d="M251.6,226.2h1.5c0.2,0,0.4,0,0.6,0c0.2,0,0.3,0.1,0.3,0.3c0,0.1,0,0.1,0,0.2s0,0.1,0,0.2v0.7v2.3c0,0.2,0,0.5,0,0.7
			c0,0.3,0,0.5,0.1,0.6c0.1,0.1,0.1,0.1,0.2,0.1c0.1,0,0.2,0,0.3,0h3.6c0.2,0,0.5,0,0.7,0c0.2,0,0.4-0.1,0.5-0.2
			c0.1-0.1,0.1-0.3,0.1-0.5c0-0.2,0-0.4,0-0.6v-2.4c0-0.2,0-0.4,0-0.7c0-0.2,0-0.4,0.1-0.5c0-0.1,0.1-0.1,0.2-0.1c0.1,0,0.3,0,0.4,0
			c0.1,0,0.3,0,0.4,0c0.2,0,0.3,0,0.4,0c0.2,0,0.4,0,0.7,0c0.2,0,0.4,0,0.5,0.1c0.1,0.1,0.1,0.2,0.1,0.3c0,0.1,0,0.3,0,0.4v1.8v7.7
			v2c0,0.1,0,0.3,0,0.5s0,0.3-0.1,0.3c-0.1,0.1-0.3,0.1-0.5,0.1c-0.2,0-0.5,0-0.7,0c-0.1,0-0.2,0-0.4,0c-0.1,0-0.3,0-0.4,0
			c-0.1,0-0.3,0-0.4,0c-0.1,0-0.2-0.1-0.2-0.1c0-0.1-0.1-0.1-0.1-0.3c0-0.1,0-0.2,0-0.4c0-0.1,0-0.3,0-0.4c0-0.1,0-0.2,0-0.3v-2.7
			v-0.5c0-0.1,0-0.1,0-0.1c0-0.1,0-0.1,0-0.1v-0.2c0,0,0-0.1,0-0.1c0,0,0-0.1,0-0.1c-0.1-0.2-0.2-0.3-0.5-0.3c-0.2,0-0.5,0-0.7,0
			h-3.7c-0.1,0-0.2,0-0.2,0.1c-0.1,0-0.1,0.1-0.2,0.1c0,0.1-0.1,0.2-0.1,0.3v0.2c0,0.1,0,0.1,0,0.2s0,0.2,0,0.2v0.8v2.6
			c0,0.2,0,0.4,0,0.6c0,0.2,0,0.4-0.1,0.5c0,0.1-0.1,0.1-0.2,0.1c-0.1,0-0.3,0-0.4,0c-0.1,0-0.3,0-0.4,0c-0.1,0-0.3,0-0.4,0
			c-0.2,0-0.4,0-0.6,0c-0.2,0-0.4,0-0.5-0.1c-0.1-0.1-0.2-0.2-0.2-0.4c0-0.2,0-0.3,0-0.5v-2.2V229v-1.7c0-0.1,0-0.3,0-0.4
			s0-0.3,0.1-0.4c0.1-0.1,0.1-0.1,0.3-0.2C251.4,226.2,251.4,226.2,251.6,226.2C251.5,226.2,251.5,226.2,251.6,226.2z"/>
		<path d="M277.5,232.5c0,0.1,0,0.2,0,0.4c0,0.2,0,0.3,0,0.4v0.2c0,0.1,0,0.3,0,0.4c0,0.1,0,0.3,0,0.4c0,0.1,0,0.2-0.1,0.3
			c0,0.1,0,0.2-0.1,0.3c-0.1,0.2-0.1,0.4-0.2,0.7c-0.1,0.2-0.1,0.4-0.2,0.6c-0.4,0.9-0.9,1.6-1.5,2.2c-0.6,0.6-1.4,1-2.4,1.3
			c-0.1,0.1-0.3,0.1-0.4,0.1c-0.1,0-0.3,0.1-0.4,0.1c-0.1,0-0.1,0-0.2,0s-0.1,0-0.2,0l-0.6,0.1c-0.1,0-0.1,0-0.3,0
			c-0.1,0-0.2,0-0.2,0c-0.1,0-0.1,0-0.2,0c-0.1,0-0.1,0-0.2,0h-0.2c-0.1,0-0.2,0-0.3,0c-0.1,0-0.2,0-0.3,0c-0.1,0-0.2,0-0.3-0.1
			c-0.1,0-0.2,0-0.3-0.1c-0.1-0.1-0.3-0.1-0.4-0.1c-0.1-0.1-0.3-0.1-0.4-0.2c-0.8-0.3-1.4-0.8-1.9-1.3c-0.5-0.5-0.9-1.2-1.3-1.9
			c-0.1-0.2-0.1-0.4-0.2-0.6c-0.1-0.2-0.1-0.4-0.2-0.6c0-0.1,0-0.1,0-0.2c0,0,0-0.1,0-0.1c0-0.1,0-0.2-0.1-0.3c0-0.1,0-0.2-0.1-0.3
			c0-0.1,0-0.1,0-0.2c0-0.1,0-0.1,0-0.2c0-0.1,0-0.2,0-0.2c0-0.1,0-0.2,0-0.2c0-0.1,0-0.2,0-0.3c0-0.1,0-0.2,0-0.3
			c0-0.1,0-0.1,0-0.2c0-0.1,0-0.1,0-0.2v-0.1c0-0.1,0-0.2,0-0.3c0-0.1,0-0.2,0-0.2c0-0.1,0-0.1,0-0.2c0-0.1,0-0.1,0-0.2
			c0.1-0.2,0.1-0.4,0.1-0.6c0-0.2,0.1-0.4,0.2-0.6c0.1-0.2,0.2-0.4,0.3-0.6c0.1-0.2,0.2-0.4,0.3-0.6c0.4-0.6,0.8-1.1,1.3-1.5
			c0.5-0.4,1.1-0.7,1.8-1c0.2-0.1,0.3-0.1,0.5-0.1c0.2,0,0.4-0.1,0.5-0.1c0.1,0,0.1,0,0.2,0c0.1,0,0.1,0,0.2,0l0.6-0.1
			c0,0,0.1,0,0.1,0c0,0,0.1,0,0.1,0c0.9,0,1.7,0.1,2.3,0.3c0.6,0.2,1.2,0.5,1.7,0.9c0.2,0.1,0.3,0.2,0.5,0.4
			c0.2,0.1,0.3,0.3,0.4,0.4c0.1,0.1,0.1,0.1,0.2,0.2c0.1,0.1,0.1,0.1,0.2,0.2c0.1,0.2,0.3,0.4,0.4,0.6c0.1,0.2,0.3,0.4,0.4,0.7
			c0.1,0.2,0.1,0.3,0.2,0.5c0.1,0.2,0.1,0.3,0.2,0.5c0,0.1,0.1,0.3,0.1,0.4s0.1,0.3,0.1,0.4c0,0.1,0,0.2,0,0.3s0,0.2,0,0.2
			c0,0.1,0,0.2,0,0.2c0,0.1,0,0.2,0,0.2V232.5z M274.6,233.2c0-0.1,0-0.2,0-0.3c0-0.1,0-0.2,0-0.3v-0.3c0,0,0-0.1,0-0.1
			c0,0,0-0.1,0-0.1c0-0.1,0-0.2,0-0.3c0-0.1,0-0.2,0-0.3c0-0.1,0-0.1,0-0.2c0-0.1-0.1-0.3-0.1-0.4c0-0.1-0.1-0.3-0.2-0.4
			c-0.3-0.6-0.7-1.2-1.2-1.5c-0.5-0.4-1.2-0.6-2.2-0.6c0,0-0.1,0-0.1,0c0,0-0.1,0-0.1,0c-0.1,0-0.1,0-0.1,0c-0.1,0-0.1,0-0.2,0
			c-0.1,0-0.3,0.1-0.4,0.1c-0.1,0-0.3,0.1-0.4,0.1c-0.5,0.2-0.9,0.5-1.2,0.9c-0.3,0.4-0.6,0.9-0.7,1.4c0,0.1-0.1,0.3-0.1,0.4
			c0,0.1,0,0.3-0.1,0.4c0,0,0,0.1,0,0.1c0,0,0,0.1,0,0.1c0,0.1,0,0.1,0,0.2c0,0.1,0,0.1,0,0.2c0,0.1,0,0.2,0,0.3c0,0.2,0,0.3,0,0.3
			v0.2c0,0.1,0,0.1,0,0.2c0,0.1,0,0.1,0,0.2c0,0.1,0,0.1,0,0.1c0,0,0,0.1,0,0.1c0,0.1,0.1,0.3,0.1,0.4c0,0.1,0.1,0.3,0.1,0.4
			c0.1,0.4,0.3,0.8,0.5,1.1c0.2,0.3,0.4,0.6,0.8,0.8c0.1,0.1,0.1,0.1,0.2,0.1c0.1,0,0.1,0.1,0.2,0.1c0.1,0.1,0.3,0.2,0.4,0.2
			c0.2,0,0.3,0.1,0.5,0.1c0.1,0,0.1,0,0.2,0c0.1,0,0.1,0,0.2,0c0.1,0,0.2,0,0.2,0c0.1,0,0.2,0,0.2,0h0.1c0.1,0,0.1,0,0.2,0
			c0.1,0,0.1,0,0.2,0c0.1,0,0.2,0,0.4-0.1c0.1,0,0.2-0.1,0.4-0.1c0.5-0.2,1-0.5,1.3-0.8c0.3-0.3,0.6-0.8,0.8-1.3
			c0.1-0.1,0.1-0.3,0.1-0.4c0-0.2,0.1-0.3,0.1-0.5l0.1-0.4c0-0.1,0-0.1,0-0.2c0-0.1,0-0.1,0-0.2V233.2z"/>
		<path d="M292.1,232.5c0,0.1,0,0.2,0,0.4c0,0.2,0,0.3,0,0.4v0.2c0,0.1,0,0.3,0,0.4c0,0.1,0,0.3,0,0.4c0,0.1,0,0.2-0.1,0.3
			c0,0.1,0,0.2-0.1,0.3c-0.1,0.2-0.1,0.4-0.2,0.7c-0.1,0.2-0.1,0.4-0.2,0.6c-0.4,0.9-0.9,1.6-1.5,2.2c-0.6,0.6-1.4,1-2.4,1.3
			c-0.1,0.1-0.3,0.1-0.4,0.1c-0.1,0-0.3,0.1-0.4,0.1c-0.1,0-0.1,0-0.2,0c-0.1,0-0.1,0-0.2,0l-0.6,0.1c-0.1,0-0.1,0-0.3,0
			c-0.1,0-0.2,0-0.2,0c-0.1,0-0.1,0-0.2,0c-0.1,0-0.1,0-0.2,0h-0.2c-0.1,0-0.2,0-0.3,0c-0.1,0-0.2,0-0.3,0c-0.1,0-0.2,0-0.3-0.1
			c-0.1,0-0.2,0-0.3-0.1c-0.1-0.1-0.3-0.1-0.4-0.1c-0.1-0.1-0.3-0.1-0.4-0.2c-0.8-0.3-1.4-0.8-1.9-1.3c-0.5-0.5-0.9-1.2-1.3-1.9
			c-0.1-0.2-0.1-0.4-0.2-0.6c-0.1-0.2-0.1-0.4-0.2-0.6c0-0.1,0-0.1,0-0.2c0,0,0-0.1,0-0.1c0-0.1,0-0.2-0.1-0.3c0-0.1,0-0.2-0.1-0.3
			c0-0.1,0-0.1,0-0.2c0-0.1,0-0.1,0-0.2c0-0.1,0-0.2,0-0.2c0-0.1,0-0.2,0-0.2c0-0.1,0-0.2,0-0.3c0-0.1,0-0.2,0-0.3
			c0-0.1,0-0.1,0-0.2c0-0.1,0-0.1,0-0.2v-0.1c0-0.1,0-0.2,0-0.3c0-0.1,0-0.2,0-0.2c0-0.1,0-0.1,0-0.2c0-0.1,0-0.1,0-0.2
			c0.1-0.2,0.1-0.4,0.2-0.6c0-0.2,0.1-0.4,0.2-0.6c0.1-0.2,0.2-0.4,0.3-0.6c0.1-0.2,0.2-0.4,0.3-0.6c0.4-0.6,0.8-1.1,1.3-1.5
			c0.5-0.4,1.1-0.7,1.8-1c0.2-0.1,0.3-0.1,0.5-0.1c0.2,0,0.4-0.1,0.5-0.1c0.1,0,0.1,0,0.2,0c0.1,0,0.1,0,0.2,0l0.6-0.1
			c0,0,0.1,0,0.1,0c0,0,0.1,0,0.1,0c0.9,0,1.7,0.1,2.3,0.3c0.7,0.2,1.2,0.5,1.7,0.9c0.2,0.1,0.3,0.2,0.5,0.4
			c0.2,0.1,0.3,0.3,0.4,0.4c0.1,0.1,0.1,0.1,0.2,0.2c0.1,0.1,0.1,0.1,0.2,0.2c0.1,0.2,0.3,0.4,0.4,0.6c0.1,0.2,0.3,0.4,0.4,0.7
			c0.1,0.2,0.1,0.3,0.2,0.5s0.1,0.3,0.2,0.5c0,0.1,0.1,0.3,0.1,0.4s0.1,0.3,0.1,0.4c0,0.1,0,0.2,0,0.3s0,0.2,0,0.2
			c0,0.1,0,0.2,0,0.2s0,0.2,0,0.2V232.5z M289.2,233.2c0-0.1,0-0.2,0-0.3c0-0.1,0-0.2,0-0.3v-0.3c0,0,0-0.1,0-0.1c0,0,0-0.1,0-0.1
			c0-0.1,0-0.2,0-0.3c0-0.1,0-0.2,0-0.3c0-0.1,0-0.1,0-0.2c0-0.1-0.1-0.3-0.1-0.4c0-0.1-0.1-0.3-0.1-0.4c-0.3-0.6-0.7-1.2-1.2-1.5
			c-0.5-0.4-1.2-0.6-2.2-0.6c0,0-0.1,0-0.1,0c0,0-0.1,0-0.1,0c-0.1,0-0.1,0-0.2,0c-0.1,0-0.1,0-0.2,0c-0.1,0-0.3,0.1-0.4,0.1
			c-0.1,0-0.3,0.1-0.4,0.1c-0.5,0.2-0.9,0.5-1.2,0.9c-0.3,0.4-0.6,0.9-0.7,1.4c0,0.1-0.1,0.3-0.1,0.4c0,0.1,0,0.3-0.1,0.4
			c0,0,0,0.1,0,0.1c0,0,0,0.1,0,0.1c0,0.1,0,0.1,0,0.2c0,0.1,0,0.1,0,0.2c0,0.1,0,0.2,0,0.3c0,0.2,0,0.3,0,0.3v0.2
			c0,0.1,0,0.1,0,0.2c0,0.1,0,0.1,0,0.2c0,0.1,0,0.1,0,0.1c0,0,0,0.1,0,0.1c0,0.1,0.1,0.3,0.1,0.4c0,0.1,0.1,0.3,0.1,0.4
			c0.1,0.4,0.3,0.8,0.5,1.1c0.2,0.3,0.5,0.6,0.8,0.8c0.1,0.1,0.1,0.1,0.2,0.1c0.1,0,0.1,0.1,0.2,0.1c0.1,0.1,0.3,0.2,0.4,0.2
			c0.2,0,0.3,0.1,0.5,0.1c0.1,0,0.1,0,0.2,0c0.1,0,0.1,0,0.2,0c0.1,0,0.1,0,0.2,0c0.1,0,0.2,0,0.2,0h0.2c0.1,0,0.1,0,0.2,0
			c0,0,0.1,0,0.2,0c0.1,0,0.2,0,0.4-0.1s0.2-0.1,0.4-0.1c0.5-0.2,1-0.5,1.3-0.8c0.3-0.3,0.6-0.8,0.8-1.3c0.1-0.1,0.1-0.3,0.1-0.4
			c0-0.2,0.1-0.3,0.1-0.5l0.1-0.4c0-0.1,0-0.1,0-0.2c0-0.1,0-0.1,0-0.2V233.2z"/>
		<path d="M294.6,226.2h1.6c0.1,0,0.3,0,0.4,0c0.1,0,0.2,0.1,0.3,0.1c0.1,0.1,0.1,0.2,0.1,0.3c0,0.1,0,0.3,0,0.5v1.7v5.7v1.1
			c0,0.1,0,0.2,0,0.3c0,0.1,0,0.2,0,0.3v0.2c0,0.1,0,0.2,0,0.3s0,0.2,0,0.2c0.1,0.2,0.3,0.2,0.5,0.2s0.5,0,0.8,0h3.6
			c0.1,0,0.2,0,0.4,0c0.1,0,0.3,0,0.4,0c0.1,0,0.3,0,0.4,0c0.1,0,0.2,0.1,0.2,0.1c0.1,0.1,0.1,0.2,0.1,0.3c0,0.1,0,0.2,0,0.4v0.9
			c0,0.1,0,0.2,0,0.3c0,0.1,0,0.2,0,0.2c-0.1,0.1-0.1,0.2-0.2,0.2c-0.1,0.1-0.2,0.1-0.3,0.1c-0.1,0-0.2,0-0.4,0h-1.3h-5.1h-1.4
			c-0.2,0-0.3,0-0.5,0c-0.1,0-0.2-0.1-0.3-0.2c-0.1-0.1-0.1-0.2-0.1-0.3c0-0.1,0-0.2,0-0.3v-1.3v-5v-4.2V227c0-0.1,0-0.2,0-0.3
			c0-0.1,0-0.2,0.1-0.3c0.1-0.1,0.1-0.1,0.3-0.2C294.5,226.2,294.5,226.2,294.6,226.2C294.6,226.2,294.6,226.2,294.6,226.2z"/>
	</g>
	<g>
		<path d="M199.3,160.3c-11,0-19.9,8.9-19.9,19.9c0,11,8.9,19.9,19.9,19.9c11,0,19.9-8.9,19.9-19.9
			C219.1,169.2,210.2,160.3,199.3,160.3z M199.3,195.4c-8.4,0-15.2-6.8-15.2-15.2c0-8.4,6.8-15.2,15.2-15.2
			c8.4,0,15.2,6.8,15.2,15.2C214.4,188.6,207.6,195.4,199.3,195.4z"/>
		<path d="M459.2,204.3h-90.8v-52.7c0-15.5-12.6-28.1-28.1-28.1H157.4c-14.2,0-25.8,11.6-25.8,25.8v55.1H40.8
			c-14.2,0-25.8,11.6-25.8,25.8v137.1c0,1.3,1,2.3,2.3,2.3h114.3v4.7c0,1.3,1,2.3,2.3,2.3H366c1.3,0,2.3-1,2.3-2.3v-4.7h114.3
			c1.3,0,2.3-1,2.3-2.3V230.1C485,215.9,473.4,204.3,459.2,204.3z M459.2,209c11.6,0,21.1,9.5,21.1,21.1v53.3
			c-15.2-59.5-54.1-64.8-55.9-65c-0.1,0-0.2,0-0.3,0h-55.7V209H459.2z M136.3,149.2c0-11.6,9.5-21.1,21.1-21.1h182.8
			c12.9,0,23.4,10.5,23.4,23.4v69.2v60.9c0,17.8-7.2,31.6-17.6,40.4v-75.6h3.6c1.3,0,2.3-1,2.3-2.3v-23.4c0-1.3-1-2.3-2.3-2.3h-3.6
			v-30.2c0-0.1,0-0.2,0-0.3c-0.2-2.1-7-50.4-96.1-50.4c-89.1,0-95.9,48.4-96.1,50.4c0,0.1,0,0.2,0,0.3v17.6
			c-0.1,0.3-0.2,0.5-0.2,0.9s0.1,0.6,0.2,0.9v10.9h-3.6c-1.3,0-2.3,1-2.3,2.3v23.4c0,1.3,1,2.3,2.3,2.3h3.4v94.4c-1.5,1-3,2-4.4,3
			c-0.3,0.1-0.6,0.4-0.8,0.6c-5.5,4.4-9.5,9.4-12.2,13.5V149.2z M342.9,357.8H142.2c2.3-3,5.2-6.3,9-9.4h187.1
			c2.6,0,4.7,2.1,4.7,4.7V357.8z M158.1,343.7c6.4-3.6,14.5-6.1,24.4-6.1h28.8h77.4h21.8c2.6,0,4.7,2.1,4.7,4.7v1.4H158.1z
			 M286.3,275v58h-33.6v-52.6c4.1-1.1,7.2-4.8,7.2-9.2c0-4.5-3.1-8.2-7.2-9.2v-4.6C282.8,258.1,286.1,273.4,286.3,275z M250.4,266.2
			c2.7,0,4.9,2.2,4.9,4.9c0,2.7-2.2,4.9-4.9,4.9c-2.7,0-4.9-2.2-4.9-4.9C245.5,268.4,247.7,266.2,250.4,266.2z M248,261.8
			c-4.1,1.1-7.2,4.8-7.2,9.2c0,4.5,3.1,8.2,7.2,9.2v52.6h-34.4v-58c0.3-1.7,3.7-17.1,34.4-17.7V261.8z M310.4,332.9H291v-58.2
			c0-0.1,0-0.2,0-0.3c-0.1-0.9-3-21.9-40.6-22c0,0,0,0,0,0c0,0,0,0,0,0c-0.1,0-0.2,0-0.3,0c-38,0-40.9,21.1-41,22c0,0.1,0,0.2,0,0.3
			v58.2h-26.4c-9.6,0-17.5,2.2-24.1,5.4v-91.8h183v79.1c-7.3,4.8-15.7,7.3-24,7.3H310.4z M158.6,209H250c1.3,0,2.3-1,2.3-2.3
			c0-1.3-1-2.3-2.3-2.3h-91.4v-15.9c0.4-2.5,8.5-46.2,91.4-46.2c44.5,0,67,12.7,78,23.3c11.2,10.8,13.2,21.7,13.4,22.9v30H158.6V209
			z M347.4,223.1v18.8H152.7v-18.8H347.4z M40.8,209h90.8v9.4H75.4c-0.1,0-0.2,0-0.3,0c-1.8,0.2-40,5.5-55.5,63.3v-51.6
			C19.7,218.5,29.2,209,40.8,209z M19.7,364.8v-58.6c0-0.1,0-0.1,0.1-0.2c5.1-40,20.1-60.5,31.7-70.5c11.9-10.3,22.9-12.2,24.1-12.4
			h56v141.7H19.7z M363.7,371.9H136.3v-4.2c0.3-0.8,1.2-2.7,2.7-5.2h220c2.6,0,4.7,2.1,4.7,4.7V371.9z M368.1,364.8c-1-4-4.7-7-9-7
			h-11.4v-4.7c0-5.2-4.2-9.4-9.4-9.4h-18.4v-1.4c0-1.7-0.5-3.3-1.3-4.7c28.1-0.6,49.9-24.9,49.9-55.9v-58.6h55.6
			c1.2,0.2,12.2,2.1,24.1,12.4c11.7,10.1,26.6,30.5,31.7,70.5c0.1,0.4,0.3,0.8,0.5,1.1v57.7H368.1z"/>
		<path d="M93,276h-9.4H67.3h-9.4c-5.2,0-9.4,4.2-9.4,9.4v42.9c0,5.2,4.2,9.4,9.4,9.4h9.4h16.4H93c5.2,0,9.4-4.2,9.4-9.4v-42.9
			C102.4,280.2,98.2,276,93,276z M53.2,328.3v-42.9c0-2.6,2.1-4.7,4.7-4.7h7v52.3h-7C55.3,332.9,53.2,330.8,53.2,328.3z M69.6,280.7
			h11.7v52.3H69.6V280.7z M97.7,328.3c0,2.6-2.1,4.7-4.7,4.7h-7v-52.3h7c2.6,0,4.7,2.1,4.7,4.7V328.3z"/>
		<path d="M441.7,276h-9.4h-16.4h-9.4c-5.2,0-9.4,4.2-9.4,9.4v42.9c0,5.2,4.2,9.4,9.4,9.4h9.4h16.4h9.4c5.2,0,9.4-4.2,9.4-9.4v-42.9
			C451,280.2,446.8,276,441.7,276z M401.8,328.3v-42.9c0-2.6,2.1-4.7,4.7-4.7h7v52.3h-7C403.9,332.9,401.8,330.8,401.8,328.3z
			 M418.2,280.7h11.7v52.3h-11.7V280.7z M446.3,328.3c0,2.6-2.1,4.7-4.7,4.7h-7v-52.3h7c2.6,0,4.7,2.1,4.7,4.7V328.3z"/>
	</g>
	<path fill="#5078B0" d="M136.3,149.2c0-11.6,9.5-21.1,21.1-21.1h182.8c12.9,0,23.4,10.5,23.4,23.4v69.2v60.9
		c0,17.8-7.2,31.6-17.6,40.4v-75.6h3.6c1.3,0,2.3-1,2.3-2.3v-23.4c0-1.3-1-2.3-2.3-2.3h-3.6v-30.2c0-0.1,0-0.2,0-0.3
		c-0.2-2.1-7-50.4-96.1-50.4c-89.1,0-95.9,48.4-96.1,50.4c0,0.1,0,0.2,0,0.3v17.6c-0.1,0.3-0.2,0.5-0.2,0.9s0.1,0.6,0.2,0.9v10.9
		h-3.6c-1.3,0-2.3,1-2.3,2.3v23.4c0,1.3,1,2.3,2.3,2.3h3.4v94.4c-1.5,1-3,2-4.4,3c-0.3,0.1-0.6,0.4-0.8,0.6
		c-5.5,4.4-9.5,9.4-12.2,13.5V149.2z"/>
	<g>
		<path fill="#F7DF50" d="M286.3,275v58h-33.6v-52.6c4.1-1.1,7.2-4.8,7.2-9.2c0-4.5-3.1-8.2-7.2-9.2v-4.6
			C282.8,258.1,286.1,273.4,286.3,275z"/>
		<path fill="#F7DF50" d="M250.4,266.2c2.7,0,4.9,2.2,4.9,4.9c0,2.7-2.2,4.9-4.9,4.9c-2.7,0-4.9-2.2-4.9-4.9
			C245.5,268.4,247.7,266.2,250.4,266.2z"/>
		<path fill="#F7DF50" d="M248,261.8c-4.1,1.1-7.2,4.8-7.2,9.2c0,4.5,3.1,8.2,7.2,9.2v52.6h-34.4v-58c0.3-1.7,3.7-17.1,34.4-17.7
			V261.8z"/>
	</g>
	<g>
		<path fill="#5078B0" d="M328,165.5c-11.1-10.6-33.6-23.3-78-23.3c-83,0-91,43.6-91.4,46.2v15.9H250c1.3,0,2.3,1,2.3,2.3
			c0,1.3-1,2.3-2.3,2.3h-91.4v9.4h182.8v-30C341.2,187.2,339.3,176.3,328,165.5z M199.3,200.1c-11,0-19.9-8.9-19.9-19.9
			c0-11,8.9-19.9,19.9-19.9c11,0,19.9,8.9,19.9,19.9C219.1,191.1,210.2,200.1,199.3,200.1z"/>
		<path fill="#5078B0" d="M310.4,332.9H291v-58.2c0-0.1,0-0.2,0-0.3c-0.1-0.9-3-21.9-40.6-22c0,0,0,0,0,0c0,0,0,0,0,0
			c-0.1,0-0.2,0-0.3,0c-38,0-40.9,21.1-41,22c0,0.1,0,0.2,0,0.3v58.2h-26.4c-9.6,0-17.5,2.2-24.1,5.4v-91.8h183v79.1
			c-7.3,4.8-15.7,7.3-24,7.3H310.4z"/>
	</g>
	<g>
		<path fill="#F7DF50" d="M342.9,357.8H142.2c2.3-3,5.2-6.3,9-9.4h187.1c2.6,0,4.7,2.1,4.7,4.7V357.8z"/>
		<path fill="#F7DF50" d="M158.1,343.7c6.4-3.6,14.5-6.1,24.4-6.1h28.8h77.4h21.8c2.6,0,4.7,2.1,4.7,4.7v1.4H158.1z"/>
		<path fill="#F7DF50" d="M363.7,371.9H136.3v-4.2c0.3-0.8,1.2-2.7,2.7-5.2h220c2.6,0,4.7,2.1,4.7,4.7V371.9z"/>
	</g>
	<g>
		<path fill="#5078B0" d="M40.8,209h90.8v9.4H75.4c-0.1,0-0.2,0-0.3,0c-1.8,0.2-40,5.5-55.5,63.3v-51.6
			C19.7,218.5,29.2,209,40.8,209z"/>
		<rect x="69.6" y="280.7" fill="#5078B0" width="11.7" height="52.3"/>
		<path fill="#5078B0" d="M53.2,285.3v42.9c0,2.6,2.1,4.7,4.7,4.7h7v-52.3h-7C55.3,280.7,53.2,282.8,53.2,285.3z"/>
		<path fill="#5078B0" d="M93,280.7h-7v52.3h7c2.6,0,4.7-2.1,4.7-4.7v-42.9C97.7,282.8,95.6,280.7,93,280.7z"/>
		<path fill="#5078B0" d="M75.6,223.1c-1.2,0.2-12.2,2.1-24.1,12.4C39.8,245.6,24.8,266,19.7,306c0,0.1,0,0.1-0.1,0.2v58.6h111.9
			V223.1H75.6z M102.4,328.3c0,5.2-4.2,9.4-9.4,9.4h-9.4H67.3h-9.4c-5.2,0-9.4-4.2-9.4-9.4v-42.9c0-5.2,4.2-9.4,9.4-9.4h9.4h16.4H93
			c5.2,0,9.4,4.2,9.4,9.4V328.3z"/>
	</g>
	<g>
		<path fill="#F7DF50" d="M459.2,209c11.6,0,21.1,9.5,21.1,21.1v53.3c-15.2-59.5-54.1-64.8-55.9-65c-0.1,0-0.2,0-0.3,0h-55.7V209
			H459.2z"/>
		<path fill="#F7DF50" d="M401.8,285.3v42.9c0,2.6,2.1,4.7,4.7,4.7h7v-52.3h-7C403.9,280.7,401.8,282.8,401.8,285.3z"/>
		<rect x="418.2" y="280.7" fill="#F7DF50" width="11.7" height="52.3"/>
		<path fill="#F7DF50" d="M441.7,280.7h-7v52.3h7c2.6,0,4.7-2.1,4.7-4.7v-42.9C446.3,282.8,444.2,280.7,441.7,280.7z"/>
		<path fill="#F7DF50" d="M479.8,306c-5.1-40-20.1-60.5-31.7-70.5c-11.9-10.3-22.9-12.2-24.1-12.4h-55.6v58.6
			c0,31-21.8,55.3-49.9,55.9c0.8,1.4,1.3,3,1.3,4.7v1.4h18.4c5.2,0,9.4,4.2,9.4,9.4v4.7H359c4.4,0,8,3,9,7h112.3v-57.7
			C480.1,306.8,479.8,306.5,479.8,306z M451,328.3c0,5.2-4.2,9.4-9.4,9.4h-9.4h-16.4h-9.4c-5.2,0-9.4-4.2-9.4-9.4v-42.9
			c0-5.2,4.2-9.4,9.4-9.4h9.4h16.4h9.4c5.2,0,9.4,4.2,9.4,9.4V328.3z"/>
	</g>
</g>
</svg>
