<?xml version="1.0" encoding="UTF-8" standalone="no"?>
<svg xmlns="http://www.w3.org/2000/svg" xml:space="preserve" viewBox="0 0 469.90064 253.10001" height="253.1" width="469.9" version="1.1" y="0px" x="0px"><g transform="translate(-15,-123.5)"><g fill="none"><rect height="18.8" width="194.7" y="223.1" x="152.7"/><path d="m199.3 165c-8.4 0-15.2 6.8-15.2 15.2s6.8 15.2 15.2 15.2 15.2-6.8 15.2-15.2c-0.1-8.4-6.9-15.2-15.2-15.2z"/></g><path d="m207.9 227.9c0.3 0.4 0.5 0.8 0.6 1.3s0.2 1.1 0.1 1.8c0 0.3-0.1 0.5-0.1 0.8-0.1 0.2-0.1 0.4-0.2 0.6 0 0 0 0.1-0.1 0.1 0 0 0 0.1-0.1 0.1-0.1 0.1-0.1 0.2-0.1 0.3s-0.1 0.2-0.2 0.2c-0.3 0.4-0.6 0.6-0.9 0.9s-0.8 0.4-1.2 0.6c-0.1 0.1-0.3 0.1-0.4 0.1s-0.3 0-0.4 0.1h-0.2-0.2-2.4-0.5c-0.2 0-0.3 0-0.4 0.1s-0.2 0.2-0.2 0.5v0.6 2.5 0.5c0 0.2 0 0.3-0.1 0.4 0 0.1-0.2 0.2-0.3 0.2h-0.3-0.3-1.1-0.4c-0.1 0-0.2 0-0.3-0.1s-0.1-0.2-0.1-0.3v-0.4-11.2-0.6c0-0.2 0-0.4 0.1-0.5s0.1-0.1 0.3-0.2h0.1 0.1 5.4 0.3 0.3 0.1 0.2 0.2 0.2 0.2c0.2 0.1 0.4 0.1 0.6 0.2s0.4 0.1 0.6 0.2c0.1 0.1 0.1 0.1 0.2 0.1s0.1 0.1 0.2 0.1 0.1 0.1 0.2 0.1c0 0 0.1 0.1 0.2 0.1l0.1 0.1c0 0.4 0.1 0.5 0.2 0.7zm-2 3.1v-0.5c0-0.2 0-0.4-0.1-0.5-0.1-0.3-0.2-0.5-0.3-0.7s-0.3-0.3-0.5-0.4-0.4-0.2-0.7-0.3-0.6-0.1-0.9-0.1h-1-1-0.1-0.1c-0.1 0.1-0.2 0.1-0.2 0.2-0.1 0.1-0.1 0.2-0.1 0.4v0.5 1.8 0.5c0 0.2 0 0.3 0.1 0.4 0 0.1 0.1 0.1 0.2 0.2 0.1 0 0.2 0.1 0.3 0.1h0.4 0.4c0.7 0 1.3 0 1.8-0.1 0.6-0.1 1-0.3 1.3-0.7 0.1-0.1 0.1-0.2 0.2-0.4 0.2-0.1 0.2-0.3 0.3-0.4z"/><path d="m209.8 226.2h1.6 0.5c0.2 0 0.3 0 0.4 0.1s0.3 0.2 0.3 0.4c0.1 0.2 0.2 0.3 0.3 0.4 0.2 0.3 0.4 0.7 0.6 1s0.4 0.7 0.6 1 0.3 0.5 0.4 0.8 0.3 0.5 0.5 0.8c0.1 0.1 0.1 0.2 0.2 0.3s0.2 0.2 0.3 0.2 0.2 0 0.2-0.1l0.2-0.2c0.1-0.2 0.2-0.4 0.3-0.5s0.2-0.4 0.3-0.5c0.3-0.4 0.5-0.9 0.8-1.3 0.2-0.4 0.5-0.9 0.8-1.3 0.1-0.2 0.2-0.3 0.3-0.6 0.1-0.2 0.3-0.4 0.4-0.4 0.1-0.1 0.3-0.1 0.5-0.1h0.6 1.1 0.3c0.1 0 0.2 0 0.3 0.1s0.1 0.2 0.1 0.3c-0.1 0.1-0.1 0.2-0.1 0.3-0.1 0.3-0.3 0.5-0.4 0.7s-0.3 0.5-0.4 0.7c-0.4 0.7-0.8 1.3-1.2 2s-0.8 1.4-1.2 2c-0.1 0.2-0.3 0.4-0.4 0.6s-0.2 0.4-0.4 0.6c-0.1 0.1-0.2 0.3-0.3 0.4s-0.1 0.3-0.2 0.5v0.2 0.2 0.1 0.1 3 0.8c0 0.3-0.1 0.5-0.2 0.5s-0.2 0.1-0.3 0.1h-0.3-1.3-0.4c-0.1 0-0.2-0.1-0.3-0.1-0.1-0.1-0.1-0.2-0.1-0.3v-0.4-3.8-0.2-0.2c-0.1-0.2-0.1-0.4-0.2-0.5s-0.2-0.3-0.3-0.4l-0.3-0.6c-0.1-0.2-0.2-0.4-0.4-0.6-0.1-0.1-0.2-0.3-0.3-0.4-0.1-0.2-0.2-0.3-0.3-0.4-0.3-0.5-0.6-1-0.9-1.5s-0.6-1-0.9-1.5c-0.1-0.2-0.3-0.5-0.4-0.7s-0.3-0.5-0.4-0.7c0-0.1-0.1-0.1-0.2-0.3-0.1-0.1-0.1-0.2 0-0.3l0.1-0.1h0.1c-0.1-0.2-0.1-0.2 0-0.2z"/><path d="m229.4 225.9c2.4 0 4.1 0.7 5 2.2l0.3 0.6c0.1 0.2 0.1 0.4 0.2 0.7v0.3c0 0.1 0 0.2-0.1 0.3s-0.2 0.1-0.3 0.1h-0.4-1.1-0.3-0.3c-0.2-0.1-0.2-0.2-0.3-0.3 0-0.1-0.1-0.3-0.2-0.4 0-0.1-0.1-0.3-0.2-0.4l-0.3-0.3c-0.2-0.1-0.3-0.2-0.5-0.3-0.1-0.1-0.3-0.1-0.6-0.2-0.2 0-0.4-0.1-0.7-0.1h-0.7c-0.2 0-0.4 0.1-0.6 0.1-0.3 0.1-0.5 0.3-0.7 0.4-0.2 0.2-0.3 0.4-0.3 0.8v0.3c0 0.1 0 0.2 0.1 0.3 0.1 0.3 0.2 0.4 0.4 0.6s0.4 0.2 0.6 0.3c0.1 0.1 0.3 0.1 0.4 0.1s0.3 0.1 0.4 0.1c0.3 0.1 0.7 0.2 1 0.3 0.4 0.1 0.7 0.2 1.1 0.3h0.2 0.2c0.2 0.1 0.5 0.2 0.8 0.2 0.3 0.1 0.5 0.2 0.7 0.3l0.9 0.6c0.2 0.2 0.5 0.5 0.7 0.8 0.1 0.1 0.1 0.2 0.2 0.3 0 0.1 0.1 0.3 0.1 0.4v0.1 0.1c0 0.2 0.1 0.4 0.1 0.7v0.2 0.3c0 0.1 0 0.3-0.1 0.4s0 0.2-0.1 0.4-0.2 0.4-0.2 0.6c-0.1 0.2-0.2 0.4-0.3 0.5s-0.1 0.1-0.1 0.2c-0.1 0-0.1 0.1-0.1 0.2l-0.2 0.2c-0.1 0.1-0.2 0.1-0.2 0.2-0.1 0.1-0.1 0.1-0.2 0.1-0.1 0.1-0.1 0.1-0.2 0.1-0.2 0.1-0.4 0.3-0.7 0.3-0.2 0.1-0.5 0.2-0.7 0.3s-0.4 0.1-0.5 0.1c-0.2 0-0.4 0-0.6 0.1h-0.3-0.2-0.2-0.1-0.1-0.3-0.3-0.2-0.3-0.3-0.2-0.2c-0.2 0-0.3-0.1-0.5-0.1s-0.3-0.1-0.5-0.1c-0.6-0.2-1.1-0.5-1.6-0.8s-0.8-0.7-1.2-1.2c-0.2-0.3-0.4-0.7-0.5-1.1v-0.2-0.2c0-0.1 0-0.2-0.1-0.4 0-0.1 0-0.3 0.1-0.3 0.1-0.1 0.2-0.2 0.3-0.2h0.4 1.2 0.3c0.1 0 0.2 0 0.3 0.1s0.2 0.2 0.2 0.3 0.1 0.3 0.1 0.4 0.1 0.3 0.2 0.4 0.2 0.2 0.2 0.4l0.2 0.2c0.1 0.1 0.2 0.1 0.2 0.2 0.3 0.2 0.6 0.3 1 0.4h0.3 0.3 0.1 0.4 0.4 0.2 0.2 0.2c0.4-0.1 0.8-0.3 1-0.4 0.2-0.2 0.4-0.5 0.5-0.9v-0.3c0-0.1 0-0.2-0.1-0.3-0.1-0.3-0.3-0.6-0.6-0.8 0 0-0.1-0.1-0.2-0.1l-0.6-0.3c-0.2-0.1-0.5-0.1-0.7-0.2-0.1 0-0.2 0-0.3-0.1-0.1 0-0.2 0-0.3-0.1-0.2-0.1-0.4-0.1-0.6-0.2-0.2 0-0.4-0.1-0.6-0.2h-0.1-0.1c-0.1 0-0.2 0-0.3-0.1-0.1 0-0.2-0.1-0.3-0.1-0.3-0.1-0.6-0.2-0.8-0.3-0.3-0.1-0.5-0.2-0.7-0.4-0.3-0.2-0.6-0.4-0.8-0.7s-0.4-0.5-0.6-0.9c-0.1-0.1-0.1-0.2-0.1-0.3s-0.1-0.2-0.1-0.4c0-0.1 0-0.3-0.1-0.5v-0.5-0.2c0-0.1 0.1-0.3 0.1-0.4s0.1-0.3 0.1-0.4c0.2-0.4 0.4-0.8 0.7-1.1s0.6-0.6 1-0.8c0.2-0.1 0.5-0.3 0.8-0.4s0.6-0.2 0.9-0.2h0.4 0.4 0.2c0.5 0.4 0.6 0.4 0.6 0.3z"/><path d="m242.9 225.9c1.3 0 2.4 0.2 3.2 0.7 0.9 0.5 1.5 1.1 2 1.9l0.3 0.6c0.1 0.2 0.2 0.5 0.2 0.7 0 0.1 0.1 0.2 0.1 0.3v0.3c0 0.1-0.1 0.1-0.1 0.1-0.1 0-0.1 0-0.2 0.1h-0.2-0.3-0.3-0.4-0.5-0.4c-0.1 0-0.2 0-0.3-0.1s-0.2-0.2-0.2-0.4c-0.1-0.1-0.1-0.3-0.2-0.4-0.2-0.4-0.6-0.7-0.9-1-0.3-0.2-0.6-0.3-0.9-0.4-0.2-0.1-0.5-0.1-0.8-0.1s-0.6 0-0.8 0.1c-0.1 0-0.2 0-0.3 0.1-0.1 0-0.2 0-0.3 0.1-0.8 0.4-1.4 1-1.8 1.8-0.1 0.2-0.1 0.3-0.2 0.5s-0.1 0.3-0.2 0.5v0.2 0.2 0.2 0.3 0.3 0.3 0.1 0.1 0.2 0.2 0.2 0.3c0 0.1 0 0.3 0.1 0.4 0 0.1 0.1 0.2 0.1 0.3 0.2 0.5 0.4 1 0.7 1.3 0.3 0.4 0.6 0.7 1.1 0.9 0.1 0.1 0.3 0.1 0.4 0.2 0.1 0 0.3 0.1 0.5 0.1h0.2 0.2 0.2 0.2 0.2 0.2c0.1 0 0.3 0 0.4-0.1 0.1 0 0.3-0.1 0.4-0.1 0.3-0.1 0.5-0.3 0.7-0.5s0.4-0.4 0.6-0.7c0.1-0.1 0.1-0.3 0.2-0.4s0.1-0.3 0.2-0.4c0-0.1 0.1-0.3 0.1-0.4s0.1-0.2 0.2-0.3h0.3 0.3 1.1 0.3c0.1 0 0.2 0 0.3 0.1s0.1 0.2 0.1 0.3v0.4l-0.1 0.5c-0.1 0.2-0.1 0.4-0.2 0.5-0.1 0.2-0.1 0.3-0.2 0.5-0.1 0.1-0.1 0.2-0.2 0.3 0 0.1-0.1 0.2-0.1 0.3-0.7 1.1-1.7 1.8-3 2.3-0.1 0.1-0.3 0.1-0.4 0.1s-0.3 0.1-0.4 0.1h-0.2-0.2-0.3-0.3-0.3-0.3-0.3-0.2-0.3-0.3c-0.1 0-0.2-0.1-0.4-0.1-0.1 0-0.2-0.1-0.4-0.1-0.1 0-0.2-0.1-0.3-0.1s-0.2-0.1-0.3-0.1c-0.8-0.3-1.4-0.8-1.9-1.3s-0.9-1.2-1.3-1.9c-0.1-0.2-0.1-0.4-0.2-0.6s-0.1-0.4-0.2-0.6v-0.2-0.1c0-0.1 0-0.2-0.1-0.4 0-0.1 0-0.2-0.1-0.4v-0.2-0.1-0.4-0.3-0.3-0.1-0.1-0.2-0.3-0.3c0-0.1 0-0.2 0.1-0.3 0-0.1 0-0.2 0.1-0.3 0.1-0.2 0.1-0.3 0.1-0.5s0.1-0.3 0.2-0.5 0.1-0.3 0.2-0.5 0.1-0.3 0.2-0.5c0.2-0.3 0.4-0.7 0.6-0.9 0.1-0.1 0.1-0.2 0.2-0.2l0.2-0.2c0.3-0.3 0.6-0.6 1-0.8 0.3-0.2 0.7-0.4 1.2-0.6 0.2-0.1 0.3-0.1 0.5-0.2 0.2 0 0.3-0.1 0.5-0.1h0.2 0.2 0.3 0.3c0.4 0.1 0.5 0.1 0.6 0.1-0.1 0 0 0 0 0z"/><path d="m251.6 226.2h1.5 0.6c0.2 0 0.3 0.1 0.3 0.3v0.2 0.2 3 0.7c0 0.3 0 0.5 0.1 0.6s0.1 0.1 0.2 0.1h0.3 3.6 0.7c0.2 0 0.4-0.1 0.5-0.2s0.1-0.3 0.1-0.5v-0.6-2.4-0.7c0-0.2 0-0.4 0.1-0.5 0-0.1 0.1-0.1 0.2-0.1h0.4 0.4 0.4 0.7c0.2 0 0.4 0 0.5 0.1s0.1 0.2 0.1 0.3v0.4 11.5 0.5c0 0.2 0 0.3-0.1 0.3-0.1 0.1-0.3 0.1-0.5 0.1h-0.7-0.4-0.4-0.4c-0.1 0-0.2-0.1-0.2-0.1 0-0.1-0.1-0.1-0.1-0.3v-0.4-0.4-0.3-3.2-0.1-0.1-0.2-0.1-0.1c-0.1-0.2-0.2-0.3-0.5-0.3h-0.7-3.7c-0.1 0-0.2 0-0.2 0.1-0.1 0-0.1 0.1-0.2 0.1 0 0.1-0.1 0.2-0.1 0.3v0.2 0.2 0.2 3.4 0.6c0 0.2 0 0.4-0.1 0.5 0 0.1-0.1 0.1-0.2 0.1h-0.4-0.4-0.4-0.6c-0.2 0-0.4 0-0.5-0.1s-0.2-0.2-0.2-0.4v-0.5-11.3-0.4c0-0.1 0-0.3 0.1-0.4s0.1-0.1 0.3-0.2c-0.3-0.1-0.3-0.1-0.1-0.1-0.1 0-0.1 0 0 0z"/><path d="m277.5 232.5v0.4 0.4 0.2 0.4 0.4c0 0.1 0 0.2-0.1 0.3 0 0.1 0 0.2-0.1 0.3-0.1 0.2-0.1 0.4-0.2 0.7-0.1 0.2-0.1 0.4-0.2 0.6-0.4 0.9-0.9 1.6-1.5 2.2s-1.4 1-2.4 1.3c-0.1 0.1-0.3 0.1-0.4 0.1s-0.3 0.1-0.4 0.1h-0.2-0.2l-0.6 0.1h-0.3-0.2-0.2-0.2-0.2-0.3-0.3c-0.1 0-0.2 0-0.3-0.1-0.1 0-0.2 0-0.3-0.1s-0.3-0.1-0.4-0.1c-0.1-0.1-0.3-0.1-0.4-0.2-0.8-0.3-1.4-0.8-1.9-1.3s-0.9-1.2-1.3-1.9c-0.1-0.2-0.1-0.4-0.2-0.6s-0.1-0.4-0.2-0.6v-0.2-0.1c0-0.1 0-0.2-0.1-0.3 0-0.1 0-0.2-0.1-0.3v-0.2-0.2-0.2-0.2-0.3-0.3-0.2-0.2-0.1-0.3-0.2-0.2-0.2c0.1-0.2 0.1-0.4 0.1-0.6s0.1-0.4 0.2-0.6l0.3-0.6 0.3-0.6c0.4-0.6 0.8-1.1 1.3-1.5s1.1-0.7 1.8-1c0.2-0.1 0.3-0.1 0.5-0.1s0.4-0.1 0.5-0.1h0.2 0.2l0.6-0.1h0.1 0.1c0.9 0 1.7 0.1 2.3 0.3s1.2 0.5 1.7 0.9c0.2 0.1 0.3 0.2 0.5 0.4 0.2 0.1 0.3 0.3 0.4 0.4l0.2 0.2 0.2 0.2c0.1 0.2 0.3 0.4 0.4 0.6s0.3 0.4 0.4 0.7c0.1 0.2 0.1 0.3 0.2 0.5s0.1 0.3 0.2 0.5c0 0.1 0.1 0.3 0.1 0.4s0.1 0.3 0.1 0.4v0.3 0.2 0.2 0.2-0.1zm-2.9 0.7v-0.3-0.3-0.3-0.1-0.1-0.3-0.3-0.2c0-0.1-0.1-0.3-0.1-0.4s-0.1-0.3-0.2-0.4c-0.3-0.6-0.7-1.2-1.2-1.5-0.5-0.4-1.2-0.6-2.2-0.6h-0.1-0.1-0.1-0.2c-0.1 0-0.3 0.1-0.4 0.1s-0.3 0.1-0.4 0.1c-0.5 0.2-0.9 0.5-1.2 0.9s-0.6 0.9-0.7 1.4c0 0.1-0.1 0.3-0.1 0.4s0 0.3-0.1 0.4v0.1 0.1 0.2 0.2 0.3 0.3 0.2 0.2 0.2 0.1 0.1c0 0.1 0.1 0.3 0.1 0.4s0.1 0.3 0.1 0.4c0.1 0.4 0.3 0.8 0.5 1.1s0.4 0.6 0.8 0.8c0.1 0.1 0.1 0.1 0.2 0.1s0.1 0.1 0.2 0.1c0.1 0.1 0.3 0.2 0.4 0.2 0.2 0 0.3 0.1 0.5 0.1h0.2 0.2 0.2 0.2 0.1 0.2 0.2c0.1 0 0.2 0 0.4-0.1 0.1 0 0.2-0.1 0.4-0.1 0.5-0.2 1-0.5 1.3-0.8s0.6-0.8 0.8-1.3c0.1-0.1 0.1-0.3 0.1-0.4 0-0.2 0.1-0.3 0.1-0.5l0.1-0.4v-0.2-0.2 0.3z"/><path d="m292.1 232.5v0.4 0.4 0.2 0.4 0.4c0 0.1 0 0.2-0.1 0.3 0 0.1 0 0.2-0.1 0.3-0.1 0.2-0.1 0.4-0.2 0.7-0.1 0.2-0.1 0.4-0.2 0.6-0.4 0.9-0.9 1.6-1.5 2.2s-1.4 1-2.4 1.3c-0.1 0.1-0.3 0.1-0.4 0.1s-0.3 0.1-0.4 0.1h-0.2-0.2l-0.6 0.1h-0.3-0.2-0.2-0.2-0.2-0.3-0.3c-0.1 0-0.2 0-0.3-0.1-0.1 0-0.2 0-0.3-0.1s-0.3-0.1-0.4-0.1c-0.1-0.1-0.3-0.1-0.4-0.2-0.8-0.3-1.4-0.8-1.9-1.3s-0.9-1.2-1.3-1.9c-0.1-0.2-0.1-0.4-0.2-0.6s-0.1-0.4-0.2-0.6v-0.2-0.1c0-0.1 0-0.2-0.1-0.3 0-0.1 0-0.2-0.1-0.3v-0.2-0.2-0.2-0.2-0.3-0.3-0.2-0.2-0.1-0.3-0.2-0.2-0.2c0.1-0.2 0.1-0.4 0.2-0.6 0-0.2 0.1-0.4 0.2-0.6l0.3-0.6 0.3-0.6c0.4-0.6 0.8-1.1 1.3-1.5s1.1-0.7 1.8-1c0.2-0.1 0.3-0.1 0.5-0.1s0.4-0.1 0.5-0.1h0.2 0.2l0.6-0.1h0.1 0.1c0.9 0 1.7 0.1 2.3 0.3 0.7 0.2 1.2 0.5 1.7 0.9 0.2 0.1 0.3 0.2 0.5 0.4 0.2 0.1 0.3 0.3 0.4 0.4l0.2 0.2 0.2 0.2c0.1 0.2 0.3 0.4 0.4 0.6s0.3 0.4 0.4 0.7c0.1 0.2 0.1 0.3 0.2 0.5s0.1 0.3 0.2 0.5c0 0.1 0.1 0.3 0.1 0.4s0.1 0.3 0.1 0.4v0.3 0.2 0.2 0.2-0.1zm-2.9 0.7v-0.3-0.3-0.3-0.1-0.1-0.3-0.3-0.2c0-0.1-0.1-0.3-0.1-0.4s-0.1-0.3-0.1-0.4c-0.3-0.6-0.7-1.2-1.2-1.5-0.5-0.4-1.2-0.6-2.2-0.6h-0.1-0.1-0.2-0.2c-0.1 0-0.3 0.1-0.4 0.1s-0.3 0.1-0.4 0.1c-0.5 0.2-0.9 0.5-1.2 0.9s-0.6 0.9-0.7 1.4c0 0.1-0.1 0.3-0.1 0.4s0 0.3-0.1 0.4v0.1 0.1 0.2 0.2 0.3 0.3 0.2 0.2 0.2 0.1 0.1c0 0.1 0.1 0.3 0.1 0.4s0.1 0.3 0.1 0.4c0.1 0.4 0.3 0.8 0.5 1.1s0.5 0.6 0.8 0.8c0.1 0.1 0.1 0.1 0.2 0.1s0.1 0.1 0.2 0.1c0.1 0.1 0.3 0.2 0.4 0.2 0.2 0 0.3 0.1 0.5 0.1h0.2 0.2 0.2 0.2 0.2 0.2 0.2c0.1 0 0.2 0 0.4-0.1s0.2-0.1 0.4-0.1c0.5-0.2 1-0.5 1.3-0.8s0.6-0.8 0.8-1.3c0.1-0.1 0.1-0.3 0.1-0.4 0-0.2 0.1-0.3 0.1-0.5l0.1-0.4v-0.2-0.2 0.3z"/><path d="m294.6 226.2h1.6 0.4c0.1 0 0.2 0.1 0.3 0.1 0.1 0.1 0.1 0.2 0.1 0.3v0.5 8.5 0.3 0.3 0.2 0.3 0.2c0.1 0.2 0.3 0.2 0.5 0.2h0.8 3.6 0.4 0.4 0.4c0.1 0 0.2 0.1 0.2 0.1 0.1 0.1 0.1 0.2 0.1 0.3v0.4 0.9 0.3 0.2c-0.1 0.1-0.1 0.2-0.2 0.2-0.1 0.1-0.2 0.1-0.3 0.1h-0.4-7.8-0.5c-0.1 0-0.2-0.1-0.3-0.2s-0.1-0.2-0.1-0.3v-0.3-11.8-0.3c0-0.1 0-0.2 0.1-0.3s0.1-0.1 0.3-0.2h0.4z"/><path d="m199.3 160.3c-11 0-19.9 8.9-19.9 19.9s8.9 19.9 19.9 19.9 19.9-8.9 19.9-19.9c-0.1-11-9-19.9-19.9-19.9zm0 35.1c-8.4 0-15.2-6.8-15.2-15.2s6.8-15.2 15.2-15.2 15.2 6.8 15.2 15.2c-0.1 8.4-6.9 15.2-15.2 15.2z"/><path d="m459.2 204.3h-90.8v-52.7c0-15.5-12.6-28.1-28.1-28.1h-182.9c-14.2 0-25.8 11.6-25.8 25.8v55.1h-90.8c-14.2 0-25.8 11.6-25.8 25.8v137.1c0 1.3 1 2.3 2.3 2.3h114.3v4.7c0 1.3 1 2.3 2.3 2.3h232.1c1.3 0 2.3-1 2.3-2.3v-4.7h114.3c1.3 0 2.3-1 2.3-2.3v-137.2c0.1-14.2-11.5-25.8-25.7-25.8zm0 4.7c11.6 0 21.1 9.5 21.1 21.1v53.3c-15.2-59.5-54.1-64.8-55.9-65h-0.3-55.7v-9.4zm-322.9-59.8c0-11.6 9.5-21.1 21.1-21.1h182.8c12.9 0 23.4 10.5 23.4 23.4v130.1c0 17.8-7.2 31.6-17.6 40.4v-75.6h3.6c1.3 0 2.3-1 2.3-2.3v-23.4c0-1.3-1-2.3-2.3-2.3h-3.6v-30.2-0.3c-0.2-2.1-7-50.4-96.1-50.4s-95.9 48.4-96.1 50.4v0.3 17.6c-0.1 0.3-0.2 0.5-0.2 0.9s0.1 0.6 0.2 0.9v10.9h-3.6c-1.3 0-2.3 1-2.3 2.3v23.4c0 1.3 1 2.3 2.3 2.3h3.4v94.4c-1.5 1-3 2-4.4 3-0.3 0.1-0.6 0.4-0.8 0.6-5.5 4.4-9.5 9.4-12.2 13.5v-208.8zm206.6 208.6h-200.7c2.3-3 5.2-6.3 9-9.4h187.1c2.6 0 4.7 2.1 4.7 4.7v4.7zm-184.8-14.1c6.4-3.6 14.5-6.1 24.4-6.1h128c2.6 0 4.7 2.1 4.7 4.7v1.4h-157.1zm128.2-68.7v58h-33.6v-52.6c4.1-1.1 7.2-4.8 7.2-9.2 0-4.5-3.1-8.2-7.2-9.2v-4.6c30.1 0.7 33.4 16 33.6 17.6zm-35.9-8.8c2.7 0 4.9 2.2 4.9 4.9s-2.2 4.9-4.9 4.9-4.9-2.2-4.9-4.9 2.2-4.9 4.9-4.9zm-2.4-4.4c-4.1 1.1-7.2 4.8-7.2 9.2 0 4.5 3.1 8.2 7.2 9.2v52.6h-34.4v-58c0.3-1.7 3.7-17.1 34.4-17.7zm62.4 71.1h-19.4v-58.2-0.3c-0.1-0.9-3-21.9-40.6-22h-0.3c-38 0-40.9 21.1-41 22v0.3 58.2h-26.4c-9.6 0-17.5 2.2-24.1 5.4v-91.8h183v79.1c-7.3 4.8-15.7 7.3-24 7.3zm-151.8-123.9h91.4c1.3 0 2.3-1 2.3-2.3s-1-2.3-2.3-2.3h-91.4v-15.9c0.4-2.5 8.5-46.2 91.4-46.2 44.5 0 67 12.7 78 23.3 11.2 10.8 13.2 21.7 13.4 22.9v30h-182.8zm188.8 14.1v18.8h-194.7v-18.8zm-306.6-14.1h90.8v9.4h-56.2-0.3c-1.8 0.2-40 5.5-55.5 63.3v-51.6c0.1-11.6 9.6-21.1 21.2-21.1zm-21.1 155.8v-58.6c0-0.1 0-0.1 0.1-0.2 5.1-40 20.1-60.5 31.7-70.5 11.9-10.3 22.9-12.2 24.1-12.4h56v141.7zm344 7.1h-227.4v-4.2c0.3-0.8 1.2-2.7 2.7-5.2h220c2.6 0 4.7 2.1 4.7 4.7zm4.4-7.1c-1-4-4.7-7-9-7h-11.4v-4.7c0-5.2-4.2-9.4-9.4-9.4h-18.4v-1.4c0-1.7-0.5-3.3-1.3-4.7 28.1-0.6 49.9-24.9 49.9-55.9v-58.6h55.6c1.2 0.2 12.2 2.1 24.1 12.4 11.7 10.1 26.6 30.5 31.7 70.5 0.1 0.4 0.3 0.8 0.5 1.1v57.7z"/><path d="m93 276h-35.1c-5.2 0-9.4 4.2-9.4 9.4v42.9c0 5.2 4.2 9.4 9.4 9.4h35.1c5.2 0 9.4-4.2 9.4-9.4v-42.9c0-5.2-4.2-9.4-9.4-9.4zm-39.8 52.3v-42.9c0-2.6 2.1-4.7 4.7-4.7h7v52.3h-7c-2.6-0.1-4.7-2.2-4.7-4.7zm16.4-47.6h11.7v52.3h-11.7zm28.1 47.6c0 2.6-2.1 4.7-4.7 4.7h-7v-52.3h7c2.6 0 4.7 2.1 4.7 4.7z"/><path d="m441.7 276h-35.2c-5.2 0-9.4 4.2-9.4 9.4v42.9c0 5.2 4.2 9.4 9.4 9.4h35.2c5.2 0 9.4-4.2 9.4-9.4v-42.9c-0.1-5.2-4.3-9.4-9.4-9.4zm-39.9 52.3v-42.9c0-2.6 2.1-4.7 4.7-4.7h7v52.3h-7c-2.6-0.1-4.7-2.2-4.7-4.7zm16.4-47.6h11.7v52.3h-11.7zm28.1 47.6c0 2.6-2.1 4.7-4.7 4.7h-7v-52.3h7c2.6 0 4.7 2.1 4.7 4.7z"/><g fill="none"><path d="m136.3 149.2c0-11.6 9.5-21.1 21.1-21.1h182.8c12.9 0 23.4 10.5 23.4 23.4v130.1c0 17.8-7.2 31.6-17.6 40.4v-75.6h3.6c1.3 0 2.3-1 2.3-2.3v-23.4c0-1.3-1-2.3-2.3-2.3h-3.6v-30.2-0.3c-0.2-2.1-7-50.4-96.1-50.4s-95.9 48.4-96.1 50.4v0.3 17.6c-0.1 0.3-0.2 0.5-0.2 0.9s0.1 0.6 0.2 0.9v10.9h-3.6c-1.3 0-2.3 1-2.3 2.3v23.4c0 1.3 1 2.3 2.3 2.3h3.4v94.4c-1.5 1-3 2-4.4 3-0.3 0.1-0.6 0.4-0.8 0.6-5.5 4.4-9.5 9.4-12.2 13.5v-208.8z"/><path d="m286.3 275v58h-33.6v-52.6c4.1-1.1 7.2-4.8 7.2-9.2 0-4.5-3.1-8.2-7.2-9.2v-4.6c30.1 0.7 33.4 16 33.6 17.6z"/><path d="m250.4 266.2c2.7 0 4.9 2.2 4.9 4.9s-2.2 4.9-4.9 4.9-4.9-2.2-4.9-4.9 2.2-4.9 4.9-4.9z"/><path d="m248 261.8c-4.1 1.1-7.2 4.8-7.2 9.2 0 4.5 3.1 8.2 7.2 9.2v52.6h-34.4v-58c0.3-1.7 3.7-17.1 34.4-17.7z"/><path d="m328 165.5c-11.1-10.6-33.6-23.3-78-23.3-83 0-91 43.6-91.4 46.2v15.9h91.4c1.3 0 2.3 1 2.3 2.3s-1 2.3-2.3 2.3h-91.4v9.4h182.8v-30c-0.2-1.1-2.1-12-13.4-22.8zm-128.7 34.6c-11 0-19.9-8.9-19.9-19.9s8.9-19.9 19.9-19.9 19.9 8.9 19.9 19.9c-0.1 10.9-9 19.9-19.9 19.9z"/><path d="m310.4 332.9h-19.4v-58.2-0.3c-0.1-0.9-3-21.9-40.6-22h-0.3c-38 0-40.9 21.1-41 22v0.3 58.2h-26.4c-9.6 0-17.5 2.2-24.1 5.4v-91.8h183v79.1c-7.3 4.8-15.7 7.3-24 7.3z"/><path d="m342.9 357.8h-200.7c2.3-3 5.2-6.3 9-9.4h187.1c2.6 0 4.7 2.1 4.7 4.7v4.7z"/><path d="m158.1 343.7c6.4-3.6 14.5-6.1 24.4-6.1h128c2.6 0 4.7 2.1 4.7 4.7v1.4z"/><path d="m363.7 371.9h-227.4v-4.2c0.3-0.8 1.2-2.7 2.7-5.2h220c2.6 0 4.7 2.1 4.7 4.7z"/><path d="m40.8 209h90.8v9.4h-56.2-0.3c-1.8 0.2-40 5.5-55.5 63.3v-51.6c0.1-11.6 9.6-21.1 21.2-21.1z"/><rect height="52.3" width="11.7" y="280.7" x="69.6"/><path d="m53.2 285.3v42.9c0 2.6 2.1 4.7 4.7 4.7h7v-52.3h-7c-2.6 0.1-4.7 2.2-4.7 4.7z"/><path d="m93 280.7h-7v52.3h7c2.6 0 4.7-2.1 4.7-4.7v-42.9c0-2.6-2.1-4.7-4.7-4.7z"/><path d="m75.6 223.1c-1.2 0.2-12.2 2.1-24.1 12.4-11.7 10.1-26.7 30.5-31.8 70.5 0 0.1 0 0.1-0.1 0.2v58.6h111.9v-141.7zm26.8 105.2c0 5.2-4.2 9.4-9.4 9.4h-35.1c-5.2 0-9.4-4.2-9.4-9.4v-42.9c0-5.2 4.2-9.4 9.4-9.4h35.1c5.2 0 9.4 4.2 9.4 9.4z"/><path d="m459.2 209c11.6 0 21.1 9.5 21.1 21.1v53.3c-15.2-59.5-54.1-64.8-55.9-65h-0.3-55.7v-9.4z"/><path d="m401.8 285.3v42.9c0 2.6 2.1 4.7 4.7 4.7h7v-52.3h-7c-2.6 0.1-4.7 2.2-4.7 4.7z"/><rect height="52.3" width="11.7" y="280.7" x="418.2"/><path d="m441.7 280.7h-7v52.3h7c2.6 0 4.7-2.1 4.7-4.7v-42.9c-0.1-2.6-2.2-4.7-4.7-4.7z"/><path d="m479.8 306c-5.1-40-20.1-60.5-31.7-70.5-11.9-10.3-22.9-12.2-24.1-12.4h-55.6v58.6c0 31-21.8 55.3-49.9 55.9 0.8 1.4 1.3 3 1.3 4.7v1.4h18.4c5.2 0 9.4 4.2 9.4 9.4v4.7h11.4c4.4 0 8 3 9 7h112.3v-57.7c-0.2-0.3-0.5-0.6-0.5-1.1zm-28.8 22.3c0 5.2-4.2 9.4-9.4 9.4h-35.2c-5.2 0-9.4-4.2-9.4-9.4v-42.9c0-5.2 4.2-9.4 9.4-9.4h35.2c5.2 0 9.4 4.2 9.4 9.4z"/></g></g></svg>
