<?xml version="1.0" encoding="UTF-8"?>
<!-- Svg Vector Icons : http://www.onlinewebfonts.com/icon -->
<!DOCTYPE svg PUBLIC "-//W3C//DTD SVG 1.1//EN" "http://www.w3.org/Graphics/SVG/1.1/DTD/svg11.dtd">
<svg version="1.1" xmlns="http://www.w3.org/2000/svg" xmlns:xlink="http://www.w3.org/1999/xlink" x="0px" y="0px" viewBox="0 0 1000 1000" enable-background="new 0 0 1000 1000" xml:space="preserve">
<metadata> Svg Vector Icons : http://www.onlinewebfonts.com/icon </metadata>
<g><g><g><path d="M505.6,396.7c16.2,0,31.6,3.4,45.6,9.5c1.1-22.9,8.9-44,21.6-61.5c-8.9-1.9-18.1-2.9-27.5-2.9h-89.1c-9.4,0-18.6,1-27.4,2.8c13.5,18.7,21.5,41.5,21.7,66.2C466.8,401.8,485.6,396.7,505.6,396.7z"/><path d="M500.7,124.6c58,0,105,47,105,105s-47,105-105,105c-58,0-105-47-105-105S442.7,124.6,500.7,124.6z"/><path d="M665.6,513.8c53.4,0,96.7-43.3,96.7-96.7c0-53.4-43.3-96.7-96.7-96.7c-52.9,0-95.9,42.5-96.7,95.3c30.5,19.1,51.9,51.5,55.8,89C637.2,510.4,651,513.8,665.6,513.8z"/><path d="M335.8,320.3c-53.4,0-96.7,43.3-96.7,96.7c0,53.4,43.3,96.7,96.7,96.7c18.9,0,36.5-5.5,51.4-14.9c4.8-30.9,21.3-58,45-76.4c0.1-1.8,0.3-3.6,0.3-5.4C432.5,363.6,389.2,320.3,335.8,320.3z"/><path d="M728.4,318.2c30.5,19.1,51.9,51.5,55.8,89c12.4,5.8,26.2,9.2,40.9,9.2c53.4,0,96.7-43.3,96.7-96.7S878.5,223,825.1,223C772.2,223,729.2,265.5,728.4,318.2z"/><path d="M505.6,420.2c53.4,0,96.7,43.3,96.7,96.7c0,53.4-43.3,96.7-96.7,96.7c-53.4,0-96.7-43.3-96.7-96.7C408.8,463.5,452.1,420.2,505.6,420.2z"/><path d="M706.7,520.4h-81.5c-0.9,32.6-14.8,61.9-36.8,83c60.7,18.1,105.1,74.4,105.1,140.9v30.9c80.4-3,126.8-25.7,129.8-27.3l6.5-3.3h0.7V644.2C830.5,575.9,774.9,520.4,706.7,520.4z"/><path d="M866.1,423h-81.4c-0.9,32.6-14.8,61.9-36.8,83C808.6,524.1,853,580.4,853,646.9v30.9c80.4-3,126.8-25.7,129.8-27.3l6.5-3.3h0.7V546.9C990,478.6,934.4,423,866.1,423z"/><path d="M422.7,603.4c-21.9-21-35.8-50.2-36.8-82.6c-3-0.2-6-0.5-9.1-0.5h-82.1c-68.3,0-123.9,55.6-123.9,123.9v100.4l0.2,1.5l6.9,2.2c52.3,16.3,99,23.8,139.5,26.2v-30.3C317.6,677.8,362,621.5,422.7,603.4z"/><path d="M546.6,620.2h-82.1c-68.3,0-123.9,55.6-123.9,123.9v100.4l0.3,1.6l6.9,2.2c65.2,20.4,121.8,27.2,168.4,27.2c91,0,143.8-26,147.1-27.6l6.5-3.3h0.7V744.1C670.5,675.8,614.9,620.2,546.6,620.2z"/><path d="M174.9,419.5c14.6,0,28.5-3.4,40.9-9.2c3.9-37.6,25.3-69.9,55.8-89c-0.8-52.7-43.7-95.3-96.7-95.3c-53.4,0-96.7,43.3-96.7,96.7C78.2,376.2,121.5,419.5,174.9,419.5z"/><path d="M252.1,509.2c-22-21.1-35.9-50.5-36.8-83.1h-81.5C65.6,426.1,10,481.7,10,550v100.4h0.7l6.5,3.3c3.1,1.5,49.4,24.3,129.8,27.3V650C147,583.5,191.4,527.2,252.1,509.2z"/><path d="M288.1,310.7c11.6-4.7,29.3-10.5,46.2-10.5c19.7,0,38.9,5.1,56.1,14.7c3.8-3.8,7.3-7.8,10.5-12.2c-16.3-21.4-25.2-47.7-25.2-74.7c0-18.2,4.1-36.2,11.8-52.6c-17.6-15.9-40.1-24.6-64-24.6c-43.5,0-81.4,29.4-92.4,70.9C263.5,240.6,284.7,273.7,288.1,310.7z"/><path d="M601.4,297.3c3.4,5.3,7.3,10.4,11.8,15.1c15.9-7.9,33.4-12.1,50.9-12.1c17.3,0,33.9,4.4,44.7,8.1c3.4-40.1,27.7-75.6,64-93.5c-13.3-38.1-49.4-64-90.2-64c-26.4,0-51.4,10.8-69.5,29.9c6.3,15.1,9.6,31,9.6,47.3C622.6,253,615.3,276.8,601.4,297.3z"/></g></g><g/><g/><g/><g/><g/><g/><g/><g/><g/><g/><g/><g/><g/><g/><g/></g>
</svg>